<svg width="144" height="141" viewBox="0 0 144 141" fill="none" xmlns="http://www.w3.org/2000/svg">
<g filter="url(#filter0_d_98_189)">
<rect x="10.1963" y="10.8872" width="123.261" height="120.1" rx="60.0501" fill="#F8F8F8" shape-rendering="crispEdges"/>
<path d="M71.8262 114.438C95.8506 114.438 115.326 94.9619 115.326 70.9375C115.326 46.9131 95.8506 27.4375 71.8262 27.4375C47.8018 27.4375 28.3262 46.9131 28.3262 70.9375C28.3262 94.9619 47.8018 114.438 71.8262 114.438Z" fill="#336E40"/>
<path d="M91.0418 59.8545L88.7344 63.221C88.6399 63.3723 88.4318 63.4101 88.2805 63.3155L85.7651 61.6701L71.864 52.6108C71.7505 52.5351 71.6181 52.5351 71.5047 52.6108L57.5847 61.6701L55.126 63.2777C54.9746 63.3723 54.7855 63.3345 54.672 63.1832L52.3646 59.8166C52.2701 59.6653 52.3079 59.4573 52.4592 59.3627L71.5047 46.9368C71.6181 46.8612 71.7505 46.8612 71.864 46.9368L85.7651 55.9962L90.9473 59.3816C91.0986 59.4951 91.1553 59.7031 91.0418 59.8545Z" fill="#F8F8F8"/>
<path d="M85.7651 64.1099V75.8171C85.7651 76.0062 85.6138 76.1386 85.4436 76.1386H57.9251C57.736 76.1386 57.6036 75.9873 57.6036 75.8171V64.1288C57.6036 64.0153 57.6603 63.9208 57.7549 63.864L71.5236 54.8803C71.637 54.8047 71.7694 54.8047 71.8829 54.8803L85.6327 63.8451C85.7273 63.8829 85.7651 63.9964 85.7651 64.1099Z" fill="#F8F8F8"/>
<path d="M94.8244 83.9118C94.9001 84.0821 94.8244 84.2712 94.6542 84.3468L85.784 87.9592L74.9279 92.366L73.0933 93.1036L68.5542 94.9571C68.4407 95.0138 68.2894 94.976 68.1949 94.8814L57.6225 84.2523L56.3931 83.0229C56.3364 82.9662 56.2418 82.9284 56.1662 82.9284H49.0738C48.8846 82.9284 48.7523 82.7771 48.7523 82.6068V78.8999C48.7523 78.7108 48.9036 78.5784 49.0738 78.5784H67.7788C67.8733 78.5784 67.949 78.6162 68.0057 78.6729L72.2423 82.9284L72.961 83.6471C73.0933 83.7795 73.0933 83.9875 72.961 84.1199L70.0294 86.9569C69.897 87.0892 69.689 87.0703 69.5755 86.9569L65.6227 83.0418C65.566 82.9851 65.4714 82.9473 65.3957 82.9473H63.7314C63.4477 82.9473 63.2964 83.3066 63.5044 83.4958L69.3107 89.321C69.4053 89.4155 69.5377 89.4345 69.6701 89.3966L76.0438 86.8055L85.4625 82.9662C85.5003 82.9473 85.5381 82.9473 85.576 82.9473H85.7651V82.8527L92.8007 79.9779C92.971 79.9023 93.1601 79.9968 93.2168 80.1482L94.8244 83.9118Z" fill="#F8F8F8"/>
</g>
<defs>
<filter id="filter0_d_98_189" x="0.235918" y="0.926836" width="143.181" height="140.021" filterUnits="userSpaceOnUse" color-interpolation-filters="sRGB">
<feFlood flood-opacity="0" result="BackgroundImageFix"/>
<feColorMatrix in="SourceAlpha" type="matrix" values="0 0 0 0 0 0 0 0 0 0 0 0 0 0 0 0 0 0 127 0" result="hardAlpha"/>
<feMorphology radius="0.905488" operator="dilate" in="SourceAlpha" result="effect1_dropShadow_98_189"/>
<feOffset/>
<feGaussianBlur stdDeviation="4.52744"/>
<feComposite in2="hardAlpha" operator="out"/>
<feColorMatrix type="matrix" values="0 0 0 0 0.545098 0 0 0 0 0.823529 0 0 0 0 0.627451 0 0 0 0.4 0"/>
<feBlend mode="normal" in2="BackgroundImageFix" result="effect1_dropShadow_98_189"/>
<feBlend mode="normal" in="SourceGraphic" in2="effect1_dropShadow_98_189" result="shape"/>
</filter>
</defs>
</svg>
