<svg width="141" height="141" viewBox="0 0 141 141" fill="none" xmlns="http://www.w3.org/2000/svg">
<g filter="url(#filter0_d_98_177)">
<rect x="10.623" y="10.8872" width="120.1" height="120.1" rx="60.0501" fill="#F8F8F8" shape-rendering="crispEdges"/>
<path d="M72.4529 111.399C58.2939 112.024 44.3326 104.92 36.6111 93.0528C29.0542 81.4403 28.0581 65.9844 34.1086 53.5178C38.9489 43.5396 47.8312 35.7952 58.4257 32.4116C60.7635 31.6643 63.1672 31.1962 65.5874 30.8348C81.0799 28.4943 97.1733 36.7068 105.265 49.8714C113.291 62.9375 113.143 80.0934 104.796 92.9542C101.866 97.4629 98.0459 101.405 93.6007 104.435C87.2703 108.747 79.9357 111.071 72.4529 111.399ZM57.6601 70.9611C55.6515 70.9611 53.7582 70.9611 51.8237 70.9611C52.0048 70.4848 52.1859 70.0578 52.3258 69.6143C52.4987 69.0805 52.8856 68.5713 52.5563 67.9471C52.3587 67.5776 51.873 67.2244 51.4368 67.2327C50.9922 67.2327 50.4572 67.594 50.309 67.9964C49.9715 68.8916 49.6257 69.7867 49.28 70.6819C49.1894 70.9118 49.0413 71.0104 48.7861 71.0022C48.251 70.9858 47.7159 70.994 47.1809 71.0022C46.6622 71.0104 46.2095 71.3882 46.1683 71.8891C46.0531 73.3181 46.0942 74.7307 46.6129 76.0939C47.4278 78.221 48.8602 79.7978 50.877 80.8408C52.26 81.5553 53.7335 81.7934 55.2811 81.7195C57.2485 81.621 58.9525 80.8983 60.4013 79.6335C62.6816 77.6461 63.5788 75.0756 63.3895 72.0945C63.3483 71.4867 62.838 71.0104 62.2206 71.0022C61.702 70.994 61.1751 71.0186 60.6565 70.9858C60.5083 70.9776 60.2861 70.879 60.2367 70.764C59.8827 69.9181 59.5534 69.064 59.2324 68.2017C58.7302 66.8795 58.2363 65.5573 57.7342 64.2269C57.4872 63.5863 57.2485 62.9457 56.9933 62.3051C56.911 62.0998 56.9686 61.9849 57.1497 61.8699C57.9976 61.3361 58.6232 60.6134 58.969 59.6689C59.0677 59.3979 59.2242 59.2994 59.5123 59.2994C61.3233 59.3076 63.1343 59.3158 64.9453 59.2994C65.2499 59.2994 65.4228 59.4226 65.4886 59.6771C65.8262 60.868 66.5835 61.7549 67.5384 62.494C67.6454 62.5762 67.7442 62.7568 67.736 62.8882C67.7195 63.2496 67.6372 63.6109 67.5878 63.9723C67.4643 64.851 67.3655 65.7215 67.2256 66.6003C67.0939 67.4872 66.9128 68.366 66.7811 69.2529C66.6576 70.0906 66.5917 70.9365 66.4682 71.7742C66.2789 72.9896 66.0566 74.2051 65.8591 75.4205C65.6862 76.5046 65.5298 77.5886 65.3734 78.6727C65.1923 79.921 65.0194 81.1775 64.8548 82.4258C64.8054 82.7789 64.649 82.9432 64.2621 82.935C63.299 82.9103 62.3441 82.9185 61.3809 82.9267C60.3108 82.935 59.8333 83.4195 59.8251 84.4871C59.8251 86.4335 59.8169 88.3716 59.8333 90.318C59.8333 90.7204 59.7016 90.8354 59.3147 90.8272C57.4378 90.8107 55.5527 90.8107 53.6758 90.8272C53.3383 90.8272 52.9926 90.8847 52.6715 90.9668C52.0953 91.1228 51.766 91.9359 51.9718 92.4861C52.2353 93.1842 52.8033 93.3484 53.4453 93.3566C56.096 93.373 58.7385 93.3813 61.3892 93.3813C70.1726 93.3813 78.9478 93.373 87.7313 93.3648C87.8383 93.3648 87.9536 93.3648 88.0606 93.3566C88.7685 93.2909 89.2624 92.9131 89.3859 92.2726C89.4929 91.747 89.213 91.3281 88.7768 91.09C88.4722 90.9257 88.0853 90.8436 87.7313 90.8354C85.8791 90.8107 84.0269 90.8272 82.1748 90.8272C81.3845 90.8272 81.4503 90.8764 81.4503 90.1291C81.4503 90.0306 81.4503 89.9402 81.4421 89.8417C81.3763 89.2093 81.0141 88.8069 80.3226 88.6591C80.0098 88.5934 79.3594 88.733 79.1454 89.2668C79.0137 89.5871 79.0055 89.9813 79.0137 90.3426C79.0219 90.704 78.9067 90.819 78.5445 90.819C73.276 90.8107 68.0076 90.8107 62.7392 90.819C62.377 90.819 62.27 90.6958 62.2782 90.3426C62.2947 88.9219 62.2864 87.4929 62.2864 86.0721C62.2864 85.4726 62.2864 85.4644 62.9038 85.4726C66.9128 85.4808 70.9135 85.4808 74.9224 85.489C76.1408 85.489 77.3673 85.489 78.5856 85.4726C78.9067 85.4644 79.0384 85.5794 79.0137 85.8997C78.9972 86.1543 79.0137 86.4171 79.0219 86.6799C79.0466 87.3204 79.9357 87.7721 80.3637 87.6654C81.047 87.5011 81.4421 86.9837 81.4586 86.2692C81.4668 85.7108 81.4586 85.1441 81.4586 84.5857C81.4586 83.4031 80.9976 82.9432 79.8204 82.935C78.8573 82.935 77.9024 82.9267 76.9393 82.935C76.6264 82.9432 76.4865 82.7953 76.4453 82.5161C76.3795 82.1137 76.3219 81.7113 76.2642 81.3089C76.1408 80.4219 76.0255 79.535 75.902 78.6398C75.8526 78.2538 75.7868 77.8596 75.7292 77.4736C75.581 76.6113 75.4246 75.7408 75.2846 74.8785C75.2023 74.3283 75.1612 73.7698 75.0788 73.2278C74.8977 72.0287 74.6919 70.8379 74.5108 69.6389C74.2803 68.0457 74.0745 66.4525 73.8358 64.8674C73.7617 64.3747 73.63 63.882 73.5559 63.3892C73.4983 62.9868 73.4983 62.6336 73.9181 62.3298C74.8154 61.681 75.4575 60.8105 75.7703 59.7182C75.8444 59.4472 76.009 59.3076 76.3301 59.3076C78.1246 59.324 79.9274 59.324 81.722 59.3076C82.0595 59.3076 82.2159 59.4226 82.3229 59.7264C82.6357 60.6052 83.212 61.3032 83.994 61.796C84.3891 62.0423 84.3315 62.2723 84.1998 62.5926C83.7882 63.6191 83.3766 64.6539 82.9815 65.6805C82.3394 67.3476 81.7138 69.0312 81.0552 70.6983C80.9976 70.8379 80.7671 70.9858 80.6107 70.994C80.0756 71.035 79.5405 71.0022 79.0055 71.0104C78.4622 71.0186 77.9353 71.4867 77.8942 72.0288C77.8036 73.2606 77.8777 74.4925 78.2646 75.6751C78.8408 77.449 79.8698 78.919 81.3927 80.0442C82.9239 81.1857 84.6443 81.7441 86.5377 81.7606C88.5298 81.777 90.3326 81.1611 91.8802 79.9045C94.4239 77.8514 95.4281 75.1495 95.1153 71.9302C95.0659 71.4046 94.6132 71.0186 94.0863 71.0104C93.5348 71.0022 92.9915 71.0268 92.44 70.994C92.2918 70.9858 92.0778 70.8462 92.0201 70.7148C91.6662 69.8853 91.3369 69.0394 91.0076 68.1935C90.275 66.28 89.5506 64.3665 88.8179 62.453C88.7274 62.2148 88.7438 62.0423 88.9661 61.8863C90.1926 61.0568 90.9253 59.9646 91.0158 58.4371C91.0735 57.5419 90.9829 56.696 90.5384 55.9322C89.5423 54.2158 88.0276 53.3617 86.0355 53.567C84.241 53.7559 83.0062 54.7825 82.3065 56.4332C82.1748 56.7371 82.0101 56.8356 81.6973 56.8356C79.9274 56.8274 78.1576 56.8192 76.3877 56.8356C76.009 56.8356 75.8691 56.6714 75.7539 56.3429C75.1941 54.7004 74.091 53.5424 72.4446 52.9757C71.9754 52.8115 71.8602 52.6144 71.8684 52.1709C71.8766 51.325 71.8684 50.4709 71.7861 49.6333C71.7202 48.9927 70.9793 48.5903 70.3619 48.7709C69.6787 48.968 69.3988 49.354 69.3823 50.1424C69.3659 50.898 69.3659 51.6453 69.3823 52.4009C69.3906 52.7047 69.2506 52.8526 68.979 52.9347C68.8473 52.9757 68.732 53.0332 68.6003 53.0825C67.0198 53.6656 66.032 54.8153 65.4886 56.3675C65.3816 56.6714 65.2417 56.8356 64.8795 56.8356C63.1096 56.8192 61.3398 56.8192 59.5699 56.8356C59.2324 56.8356 59.0513 56.7371 58.936 56.4086C58.6315 55.5463 58.0717 54.8564 57.3144 54.3554C55.4457 53.1154 53.363 53.2303 51.6837 54.7086C50.2184 55.9897 49.9385 57.7226 50.3748 59.3486C50.663 60.4163 51.3133 61.2457 52.2435 61.8535C52.4575 61.9931 52.5645 62.1573 52.4657 62.3955C52.1776 63.1264 51.8895 63.8491 51.5932 64.5718C51.3462 65.1631 51.6672 65.8858 52.2517 66.1404C53.0255 66.4771 53.7664 65.9679 53.9969 65.2699C54.1945 64.6703 54.4414 64.079 54.6637 63.4795C54.6966 63.4713 54.7378 63.4713 54.7707 63.4631C55.7421 65.9433 56.6887 68.4235 57.6601 70.9611Z" fill="#336E40"/>
<path d="M57.6601 70.9611C56.6887 68.4235 55.7338 65.9433 54.7872 63.4631C54.7542 63.4713 54.7131 63.4713 54.6801 63.4795C54.4579 64.0708 54.2109 64.6621 54.0134 65.2699C53.7829 65.9679 53.042 66.4771 52.2682 66.1404C51.6837 65.8858 51.3627 65.1631 51.6096 64.5718C51.906 63.8491 52.2023 63.1264 52.4822 62.3955C52.5728 62.1573 52.474 61.9931 52.26 61.8535C51.3297 61.2457 50.6794 60.4163 50.3913 59.3486C49.955 57.7226 50.2349 55.9897 51.7002 54.7086C53.3795 53.2385 55.4704 53.1236 57.3308 54.3554C58.0799 54.8564 58.6479 55.5463 58.9525 56.4086C59.0677 56.7371 59.2571 56.8356 59.5864 56.8356C61.3562 56.8192 63.1261 56.8192 64.8959 56.8356C65.2582 56.8356 65.4063 56.6714 65.5051 56.3675C66.0484 54.8071 67.028 53.6574 68.6168 53.0825C68.7403 53.0332 68.8637 52.9757 68.9954 52.9347C69.2589 52.8526 69.3988 52.7047 69.3988 52.4009C69.3823 51.6453 69.3823 50.898 69.3988 50.1424C69.4153 49.354 69.7034 48.9763 70.3784 48.7709C71.004 48.5903 71.7449 48.9927 71.8025 49.6333C71.8848 50.4709 71.8848 51.325 71.8848 52.1709C71.8848 52.6144 71.9919 52.8115 72.4611 52.9757C74.1075 53.5424 75.2023 54.7004 75.7703 56.3429C75.8773 56.6632 76.0255 56.8356 76.4042 56.8356C78.174 56.8192 79.9439 56.8192 81.7138 56.8356C82.0348 56.8356 82.1995 56.7371 82.3229 56.4332C83.0144 54.7825 84.2492 53.7559 86.052 53.567C88.0441 53.3617 89.5588 54.2076 90.5549 55.9322C90.9994 56.696 91.0899 57.5501 91.0323 58.4371C90.9335 59.9564 90.2009 61.0568 88.9826 61.8863C88.7603 62.0341 88.7438 62.2148 88.8344 62.453C89.567 64.3665 90.2914 66.28 91.0241 68.1935C91.3451 69.0394 91.6744 69.8853 92.0366 70.7147C92.0942 70.8461 92.3082 70.9858 92.4564 70.994C92.9997 71.0268 93.5513 71.0022 94.1028 71.0104C94.6296 71.0186 95.0824 71.4128 95.1318 71.9302C95.4446 75.1495 94.4403 77.8514 91.8967 79.9045C90.3491 81.1528 88.5463 81.7688 86.5541 81.7606C84.6608 81.7441 82.9403 81.1939 81.4092 80.0442C79.8945 78.9108 78.8655 77.449 78.2811 75.6751C77.8942 74.4925 77.8201 73.2606 77.9106 72.0287C77.9518 71.4867 78.4786 71.0186 79.0219 71.0104C79.557 71.0022 80.0921 71.0268 80.6272 70.994C80.7836 70.9858 81.0223 70.8379 81.0717 70.6983C81.7302 69.0312 82.3476 67.3558 82.9979 65.6805C83.3931 64.6457 83.8047 63.6191 84.2163 62.5926C84.348 62.2641 84.4056 62.0423 84.0105 61.796C83.2367 61.3032 82.6522 60.6052 82.3394 59.7264C82.2324 59.4308 82.076 59.3076 81.7385 59.3076C79.9439 59.324 78.1411 59.324 76.3466 59.3076C76.0173 59.3076 75.8609 59.4472 75.7868 59.7182C75.474 60.8105 74.8319 61.681 73.9346 62.3298C73.5065 62.6419 73.5148 62.9868 73.5724 63.3892C73.6465 63.882 73.7782 64.3747 73.8523 64.8674C74.0828 66.4607 74.2886 68.0539 74.5273 69.6389C74.7002 70.8379 74.9142 72.0287 75.0953 73.2278C75.1776 73.778 75.2188 74.3365 75.3011 74.8785C75.4328 75.749 75.5974 76.6113 75.7456 77.4736C75.8115 77.8596 75.8691 78.2538 75.9185 78.6398C76.042 79.5268 76.1572 80.4137 76.2807 81.3089C76.3383 81.7113 76.3959 82.1137 76.4618 82.5161C76.503 82.7953 76.6429 82.9432 76.9557 82.935C77.9188 82.9185 78.8738 82.9267 79.8369 82.935C81.0141 82.9432 81.4668 83.4031 81.475 84.5857C81.475 85.1441 81.4833 85.7108 81.475 86.2692C81.4668 86.9837 81.0634 87.5011 80.3802 87.6654C79.9521 87.7721 79.0631 87.3204 79.0384 86.6799C79.0302 86.4171 79.0137 86.1625 79.0302 85.8997C79.0549 85.5712 78.9149 85.4644 78.6021 85.4726C77.3838 85.489 76.1572 85.489 74.9389 85.489C70.9299 85.489 66.9292 85.4808 62.9203 85.4726C62.3029 85.4726 62.3029 85.4726 62.3029 86.0721C62.3029 87.4929 62.3111 88.9219 62.2947 90.3426C62.2864 90.6958 62.3934 90.819 62.7556 90.819C68.0241 90.8107 73.2925 90.8107 78.5609 90.819C78.9231 90.819 79.0384 90.704 79.0302 90.3426C79.0219 89.9813 79.0302 89.5871 79.1619 89.2668C79.3841 88.733 80.0262 88.5934 80.339 88.6591C81.0223 88.8069 81.3845 89.2093 81.4586 89.8417C81.4668 89.9402 81.4668 90.0306 81.4668 90.1291C81.4668 90.8764 81.4092 90.8272 82.1912 90.8272C84.0434 90.8272 85.8956 90.8107 87.7478 90.8354C88.1017 90.8436 88.4886 90.9257 88.7932 91.09C89.2295 91.3281 89.5094 91.747 89.4024 92.2726C89.2789 92.9132 88.7768 93.2827 88.077 93.3566C87.97 93.3648 87.8548 93.3648 87.7478 93.3648C78.9643 93.3731 70.1891 93.3813 61.4056 93.3813C58.7549 93.3813 56.1125 93.3731 53.4618 93.3566C52.8197 93.3484 52.2517 93.1842 51.9883 92.4861C51.7743 91.9359 52.1118 91.1228 52.688 90.9668C53.0173 90.8764 53.3548 90.8272 53.6923 90.8272C55.5692 90.8108 57.4543 90.8108 59.3312 90.8272C59.7181 90.8272 59.8498 90.7204 59.8498 90.318C59.8333 88.3716 59.8415 86.4335 59.8415 84.4871C59.8415 83.4195 60.3272 82.935 61.3974 82.9267C62.3605 82.9185 63.3154 82.9103 64.2786 82.935C64.6655 82.9432 64.8219 82.7789 64.8713 82.4258C65.0359 81.1775 65.2088 79.921 65.3899 78.6727C65.5463 77.5886 65.7027 76.5046 65.8755 75.4205C66.0731 74.2051 66.2954 72.9896 66.4847 71.7742C66.6082 70.9365 66.674 70.0906 66.7975 69.2529C66.9292 68.366 67.1021 67.4872 67.242 66.6003C67.3738 65.7298 67.4808 64.851 67.6043 63.9723C67.6536 63.6109 67.736 63.2496 67.7524 62.8882C67.7607 62.7568 67.6619 62.5762 67.5549 62.494C66.6 61.7467 65.8426 60.868 65.5051 59.6771C65.431 59.4226 65.2664 59.2994 64.9618 59.2994C63.1508 59.3158 61.3398 59.3158 59.5287 59.2994C59.2324 59.2994 59.0842 59.3979 58.9854 59.6689C58.6397 60.6134 58.0223 61.3361 57.1662 61.8699C56.9851 61.9849 56.9274 62.0998 57.0098 62.3051C57.265 62.9457 57.5037 63.5863 57.7506 64.2269C58.2528 65.5491 58.7467 66.8795 59.2488 68.2017C59.5781 69.0558 59.8992 69.9181 60.2531 70.764C60.3025 70.879 60.5248 70.9858 60.673 70.9858C61.1916 71.0104 61.7184 70.994 62.237 71.0022C62.8462 71.0104 63.3648 71.4867 63.406 72.0944C63.5871 75.0756 62.6898 77.6461 60.4178 79.6335C58.969 80.8983 57.265 81.6292 55.2975 81.7195C53.7417 81.7934 52.2682 81.5553 50.8934 80.8408C48.8766 79.7978 47.4443 78.221 46.6293 76.0939C46.1107 74.7307 46.0613 73.3181 46.1848 71.8891C46.226 71.3882 46.6787 71.0104 47.1973 71.0022C47.7324 70.994 48.2675 70.9858 48.8025 71.0022C49.066 71.0104 49.2141 70.9118 49.2965 70.6819C49.634 69.7867 49.9797 68.8916 50.3254 67.9964C50.4736 67.594 51.0087 67.2327 51.4532 67.2327C51.8895 67.2327 52.3752 67.5776 52.5728 67.9471C52.902 68.5713 52.5151 69.0723 52.3423 69.6143C52.2023 70.0578 52.0212 70.4848 51.8401 70.9611C53.7664 70.9611 55.6597 70.9611 57.6601 70.9611ZM67.3161 82.8528C67.4561 82.8857 67.5055 82.9021 67.5549 82.9021C69.5717 82.9021 71.5885 82.9021 73.5971 82.9103C73.877 82.9103 73.9675 82.7871 73.9264 82.5325C73.8276 81.8591 73.7206 81.1857 73.6218 80.5205C73.3666 78.7959 73.1114 77.0794 72.8562 75.3548C72.6916 74.2708 72.5269 73.1867 72.3623 72.1109C72.1977 71.0432 72.0248 69.9674 71.8766 68.8998C71.6955 67.6515 71.5391 66.395 71.358 65.1385C71.3004 64.7032 71.2016 64.2761 71.1522 63.8491C71.111 63.5124 70.9053 63.4877 70.6336 63.4877C70.3537 63.4877 70.1644 63.5288 70.115 63.8573C69.9997 64.6539 69.8598 65.4423 69.7445 66.2389C69.5634 67.4872 69.3988 68.7437 69.2259 70.0003C69.1683 70.4191 69.1025 70.8297 69.0366 71.2486C68.8967 72.1027 68.7403 72.9485 68.6085 73.8026C68.5262 74.3365 68.4851 74.8785 68.411 75.4123C68.2793 76.3075 68.1311 77.2108 67.9911 78.106C67.843 79.034 67.6948 79.962 67.5549 80.8983C67.4725 81.5306 67.4067 82.1794 67.3161 82.8528ZM54.7625 79.305C55.3634 79.2147 55.9972 79.1983 56.5652 79.0094C57.9564 78.5495 59.1089 77.7447 59.9239 76.4799C60.4425 75.6751 60.7059 74.7799 60.9117 73.8684C60.9858 73.5481 60.8623 73.392 60.5001 73.4167C60.0391 73.4495 59.5699 73.4249 59.1007 73.4249C55.7421 73.4249 52.3834 73.4249 49.0248 73.4167C48.7038 73.4167 48.5474 73.507 48.6132 73.8355C48.7285 74.3611 48.8025 74.9113 49.0001 75.4041C49.9056 77.6215 52.0871 79.3297 54.7625 79.305ZM80.4214 73.4331C80.4049 73.5727 80.3967 73.6548 80.3884 73.7369C80.3884 73.8027 80.3802 73.8766 80.3967 73.9423C80.6354 75.0838 81.047 76.1596 81.8043 77.0712C82.7757 78.2374 84.0352 78.9683 85.5087 79.1901C86.3401 79.3132 87.2209 79.1736 88.0688 79.0587C88.9908 78.9355 89.781 78.4509 90.4972 77.8678C91.6744 76.907 92.3329 75.6423 92.6705 74.1886C92.8104 73.5727 92.7034 73.4331 92.086 73.4331C88.9167 73.4331 85.7556 73.4331 82.5863 73.4331C81.8784 73.4331 81.1705 73.4331 80.4214 73.4331ZM70.6501 60.9829C72.3376 60.909 73.5806 59.7675 73.5889 58.0593C73.5971 56.3593 72.3376 55.1028 70.6501 55.0946C68.9625 55.0946 67.7113 56.3511 67.7113 58.0511C67.7113 59.7593 68.979 60.9172 70.6501 60.9829ZM89.4929 70.9776C88.5133 68.4399 87.5667 65.9597 86.6118 63.4877C86.5788 63.4795 86.5459 63.4713 86.513 63.4631C85.5581 65.9515 84.6114 68.4317 83.6318 70.9776C85.6322 70.9776 87.5255 70.9776 89.4929 70.9776ZM88.5874 58.0182C88.7274 56.9095 87.4761 55.9322 86.4965 55.9979C85.3523 56.0719 84.5044 56.9424 84.5126 58.1825C84.5209 59.2255 85.484 60.0631 86.6035 60.096C87.509 60.1288 88.7274 59.209 88.5874 58.0182ZM52.7127 58.0264C52.5728 59.1844 53.7911 60.1042 54.7048 60.1042C55.8985 60.1124 56.7957 59.0366 56.7957 58.1743C56.7957 56.9424 55.9479 56.0719 54.8036 55.9979C53.8158 55.9322 52.5728 56.9424 52.7127 58.0264Z" fill="#F8F8F8"/>
<path d="M67.3161 82.8528C67.3985 82.1794 67.4725 81.5306 67.5713 80.8818C67.7113 79.9538 67.8594 79.0258 68.0076 78.0896C68.1476 77.1944 68.2957 76.291 68.4274 75.3959C68.5015 74.8621 68.5427 74.32 68.625 73.7862C68.7567 72.9321 68.9131 72.0862 69.0531 71.2321C69.1189 70.8133 69.1848 70.4027 69.2424 69.9838C69.4153 68.7355 69.5799 67.479 69.761 66.2225C69.8763 65.4259 70.0162 64.6375 70.1315 63.8409C70.1808 63.5124 70.3619 63.4713 70.6501 63.4713C70.9217 63.4713 71.1275 63.496 71.1687 63.8327C71.2181 64.2679 71.3168 64.695 71.3745 65.122C71.5473 66.3785 71.712 67.6269 71.8931 68.8834C72.0495 69.9592 72.2141 71.0268 72.3788 72.0945C72.5434 73.1785 72.708 74.2626 72.8727 75.3384C73.1279 77.063 73.3831 78.7794 73.6383 80.5041C73.737 81.1775 73.8441 81.8509 73.9428 82.5161C73.984 82.7707 73.8934 82.8939 73.6136 82.8939C71.5967 82.8857 69.5799 82.8857 67.5713 82.8857C67.5055 82.9021 67.4561 82.8857 67.3161 82.8528Z" fill="#336E40"/>
<path d="M54.7625 79.305C52.0871 79.3215 49.9056 77.6133 49.0083 75.4041C48.8108 74.9113 48.7367 74.3611 48.6214 73.8355C48.5474 73.5152 48.712 73.4167 49.033 73.4167C52.3917 73.4249 55.7503 73.4249 59.1089 73.4249C59.5781 73.4249 60.0391 73.4413 60.5083 73.4167C60.8705 73.392 60.994 73.5399 60.9199 73.8684C60.7141 74.7882 60.4589 75.6751 59.9321 76.4799C59.1171 77.7364 57.9647 78.5495 56.5735 79.0094C55.989 79.2065 55.3634 79.2147 54.7625 79.305Z" fill="#336E40"/>
<path d="M80.4214 73.4331C81.1705 73.4331 81.8784 73.4331 82.5946 73.4331C85.7639 73.4331 88.9249 73.4331 92.0942 73.4331C92.7116 73.4331 92.8186 73.5727 92.6787 74.1886C92.3412 75.6423 91.6744 76.907 90.5055 77.8678C89.7893 78.4509 88.999 78.9355 88.077 79.0587C87.2292 79.1736 86.3483 79.305 85.5169 79.1901C84.0434 78.9765 82.7757 78.2456 81.8125 77.0712C81.0552 76.1596 80.6518 75.0838 80.4049 73.9423C80.3884 73.8766 80.3967 73.8027 80.3967 73.7369C80.3967 73.6548 80.4049 73.5727 80.4214 73.4331Z" fill="#336E40"/>
<path d="M70.6501 60.9829C68.979 60.9172 67.7113 59.7593 67.7113 58.0593C67.7113 56.3593 68.9625 55.1028 70.6501 55.1028C72.3376 55.1028 73.5971 56.3675 73.5889 58.0675C73.5806 59.7675 72.3294 60.909 70.6501 60.9829Z" fill="#336E40"/>
<path d="M89.4929 70.9776C87.5255 70.9776 85.6404 70.9776 83.64 70.9776C84.6114 68.4399 85.5663 65.9515 86.5212 63.4631C86.5541 63.4713 86.5871 63.4795 86.62 63.4877C87.5584 65.9597 88.5133 68.4399 89.4929 70.9776Z" fill="#336E40"/>
<path d="M88.5874 58.0182C88.7274 59.209 87.509 60.1288 86.5953 60.096C85.4757 60.0549 84.5126 59.2172 84.5044 58.1825C84.4962 56.9424 85.344 56.0719 86.4883 55.9979C87.4761 55.9322 88.7191 56.9177 88.5874 58.0182Z" fill="#336E40"/>
<path d="M52.7127 58.0264C52.5728 56.9424 53.8158 55.9322 54.8036 55.9979C55.9561 56.0719 56.7957 56.9424 56.7957 58.1743C56.7957 59.0366 55.9067 60.1124 54.7048 60.1042C53.7911 60.1042 52.5728 59.1844 52.7127 58.0264Z" fill="#336E40"/>
</g>
<defs>
<filter id="filter0_d_98_177" x="0.662676" y="0.926836" width="140.021" height="140.021" filterUnits="userSpaceOnUse" color-interpolation-filters="sRGB">
<feFlood flood-opacity="0" result="BackgroundImageFix"/>
<feColorMatrix in="SourceAlpha" type="matrix" values="0 0 0 0 0 0 0 0 0 0 0 0 0 0 0 0 0 0 127 0" result="hardAlpha"/>
<feMorphology radius="0.905488" operator="dilate" in="SourceAlpha" result="effect1_dropShadow_98_177"/>
<feOffset/>
<feGaussianBlur stdDeviation="4.52744"/>
<feComposite in2="hardAlpha" operator="out"/>
<feColorMatrix type="matrix" values="0 0 0 0 0.545098 0 0 0 0 0.823529 0 0 0 0 0.627451 0 0 0 0.4 0"/>
<feBlend mode="normal" in2="BackgroundImageFix" result="effect1_dropShadow_98_177"/>
<feBlend mode="normal" in="SourceGraphic" in2="effect1_dropShadow_98_177" result="shape"/>
</filter>
</defs>
</svg>
