<svg width="408" height="408" viewBox="0 0 408 408" fill="none" xmlns="http://www.w3.org/2000/svg">
<g filter="url(#filter0_i_101_315)">
<path d="M173.44 36.2513C189.758 17.2338 219.187 17.2338 235.505 36.2513L247.839 50.625C256.32 60.5084 269.001 65.7612 281.986 64.7693L300.871 63.3267C325.857 61.4181 346.667 82.2277 344.758 107.214L343.316 126.099C342.324 139.084 347.576 151.765 357.46 160.246L371.834 172.58C390.851 188.898 390.851 218.327 371.834 234.645L357.46 246.979C347.576 255.46 342.324 268.141 343.316 281.126L344.758 300.011C346.667 324.997 325.857 345.807 300.871 343.898L281.986 342.456C269.001 341.464 256.32 346.716 247.839 356.6L235.505 370.974C219.187 389.991 189.758 389.991 173.44 370.974L161.106 356.6C152.625 346.716 139.944 341.464 126.959 342.456L108.074 343.898C83.0877 345.807 62.2781 324.997 64.1867 300.011L65.6293 281.126C66.6213 268.141 61.3685 255.46 51.485 246.979L37.1113 234.645C18.0939 218.327 18.0939 188.898 37.1113 172.58L51.485 160.246C61.3685 151.765 66.6213 139.084 65.6293 126.099L64.1867 107.214C62.2781 82.2277 83.0877 61.4181 108.074 63.3267L126.959 64.7693C139.944 65.7612 152.625 60.5084 161.106 50.625L173.44 36.2513Z" fill="#55B76B"/>
</g>
<g filter="url(#filter1_d_101_315)">
<path d="M154.52 161.327L185.188 191.996L254.424 122.759" stroke="#FDFDFD" stroke-width="17.6576" stroke-linecap="square"/>
<path d="M99.515 252.795L84.9205 218.966H93.3776L106.136 248.929H101.158L114.11 218.966H121.89L107.247 252.795H99.515ZM131.915 232.594H148.201V238.683H131.915V232.594ZM132.495 246.512H150.907V252.795H124.714V218.966H150.279V225.249H132.495V246.512ZM157.136 252.795V218.966H171.779C174.808 218.966 177.417 219.466 179.608 220.465C181.799 221.431 183.49 222.833 184.682 224.669C185.874 226.505 186.47 228.696 186.47 231.241C186.47 233.754 185.874 235.929 184.682 237.765C183.49 239.569 181.799 240.955 179.608 241.921C177.417 242.888 174.808 243.371 171.779 243.371H161.486L164.965 239.94V252.795H157.136ZM178.641 252.795L170.184 240.52H178.545L187.098 252.795H178.641ZM164.965 240.81L161.486 237.137H171.344C173.76 237.137 175.565 236.622 176.757 235.591C177.949 234.527 178.545 233.078 178.545 231.241C178.545 229.373 177.949 227.923 176.757 226.892C175.565 225.861 173.76 225.345 171.344 225.345H161.486L164.965 221.624V240.81ZM192.673 252.795V218.966H200.502V252.795H192.673ZM215.779 234.189H232.016V240.472H215.779V234.189ZM216.359 252.795H208.53V218.966H234.094V225.249H216.359V252.795ZM239.394 252.795V218.966H247.223V252.795H239.394ZM262.452 232.594H278.738V238.683H262.452V232.594ZM263.032 246.512H281.444V252.795H255.251V218.966H280.816V225.249H263.032V246.512ZM287.673 252.795V218.966H303.041C306.714 218.966 309.952 219.675 312.755 221.093C315.558 222.478 317.748 224.427 319.327 226.94C320.906 229.453 321.695 232.433 321.695 235.881C321.695 239.296 320.906 242.276 319.327 244.821C317.748 247.334 315.558 249.299 312.755 250.717C309.952 252.102 306.714 252.795 303.041 252.795H287.673ZM295.502 246.367H302.654C304.91 246.367 306.859 245.948 308.502 245.111C310.177 244.241 311.466 243.017 312.368 241.438C313.302 239.859 313.769 238.007 313.769 235.881C313.769 233.722 313.302 231.869 312.368 230.323C311.466 228.744 310.177 227.536 308.502 226.699C306.859 225.829 304.91 225.394 302.654 225.394H295.502V246.367Z" fill="#FDFDFD"/>
</g>
<defs>
<filter id="filter0_i_101_315" x="22.8486" y="14.1817" width="364.177" height="371.055" filterUnits="userSpaceOnUse" color-interpolation-filters="sRGB">
<feFlood flood-opacity="0" result="BackgroundImageFix"/>
<feBlend mode="normal" in="SourceGraphic" in2="BackgroundImageFix" result="shape"/>
<feColorMatrix in="SourceAlpha" type="matrix" values="0 0 0 0 0 0 0 0 0 0 0 0 0 0 0 0 0 0 127 0" result="hardAlpha"/>
<feOffset dx="0.929348" dy="-13.0109"/>
<feGaussianBlur stdDeviation="3.90326"/>
<feComposite in2="hardAlpha" operator="arithmetic" k2="-1" k3="1"/>
<feColorMatrix type="matrix" values="0 0 0 0 0.095 0 0 0 0 0.405 0 0 0 0 0.238929 0 0 0 1 0"/>
<feBlend mode="normal" in2="shape" result="effect1_innerShadow_101_315"/>
</filter>
<filter id="filter1_d_101_315" x="79.0098" y="108.556" width="262.076" height="181.162" filterUnits="userSpaceOnUse" color-interpolation-filters="sRGB">
<feFlood flood-opacity="0" result="BackgroundImageFix"/>
<feColorMatrix in="SourceAlpha" type="matrix" values="0 0 0 0 0 0 0 0 0 0 0 0 0 0 0 0 0 0 127 0" result="hardAlpha"/>
<feOffset dx="7.43478" dy="2"/>
<feGaussianBlur stdDeviation="1.8587"/>
<feComposite in2="hardAlpha" operator="out"/>
<feColorMatrix type="matrix" values="0 0 0 0 0 0 0 0 0 0 0 0 0 0 0 0 0 0 0.5 0"/>
<feBlend mode="normal" in2="BackgroundImageFix" result="effect1_dropShadow_101_315"/>
<feBlend mode="normal" in="SourceGraphic" in2="effect1_dropShadow_101_315" result="shape"/>
</filter>
</defs>
</svg>
